<svg width="32" height="32" viewBox="0 0 32 32" fill="none" xmlns="http://www.w3.org/2000/svg">
<g id="icon/social/fb">
<path id="Vector" d="M29.1045 1.26758H2.89453C2.46355 1.26758 2.05023 1.43878 1.74548 1.74353C1.44074 2.04828 1.26953 2.4616 1.26953 2.89258V29.1051C1.26953 29.5361 1.44074 29.9494 1.74548 30.2541C2.05023 30.5589 2.46355 30.7301 2.89453 30.7301H16.9995V19.3226H13.1645V14.8751H16.9995V11.5951C16.9995 7.79008 19.3245 5.71758 22.7195 5.71758C23.8652 5.71349 25.0102 5.77191 26.1495 5.89258V9.87008H23.802C21.9545 9.87008 21.597 10.7476 21.597 12.0351V14.8751H25.9995L25.427 19.3226H21.597V30.7326H29.097C29.5278 30.7319 29.9407 30.5605 30.2453 30.2559C30.55 29.9513 30.7214 29.5384 30.722 29.1076V2.89508C30.7227 2.46496 30.5528 2.05213 30.2496 1.74706C29.9464 1.44199 29.5346 1.26956 29.1045 1.26758Z" fill="#FEFEFE"/>
</g>
</svg>
