<svg width="64" height="64" viewBox="0 0 64 64" fill="none" xmlns="http://www.w3.org/2000/svg">
<g id="icon/medium/hand-plant-outline-icon 2">
<path id="Path 2041" fill-rule="evenodd" clip-rule="evenodd" d="M15.7776 1.03205C15.6658 1.0952 15.5675 1.1796 15.4881 1.28052C15.3393 1.46709 15.3386 1.47686 15.3754 3.12239C15.3982 4.13216 15.4658 5.22839 15.549 5.93519C15.6242 6.5722 15.7595 7.48186 15.8497 7.95661C15.94 8.43136 16.1162 9.19092 16.2407 9.64437C16.3651 10.0978 16.5907 10.7816 16.7419 11.1637C16.893 11.5459 17.1373 12.082 17.2836 12.355C17.4581 12.6738 17.6489 12.9832 17.8552 13.2822C18.0537 13.5564 18.267 13.8195 18.4943 14.0702C18.7626 14.3412 19.0504 14.5922 19.3553 14.8213C19.6709 15.0538 20.0027 15.2635 20.348 15.4489C20.604 15.5778 21.0058 15.7557 21.2412 15.8443C21.6105 15.9718 21.986 16.0806 22.3663 16.1701C22.9246 16.2883 23.4888 16.3761 24.0566 16.4332C24.6831 16.4977 25.3135 16.5166 25.9428 16.49C26.4342 16.4672 27.1843 16.4072 27.6093 16.3567C28.0343 16.3062 28.4539 16.2469 28.5411 16.225C28.6797 16.1901 28.7416 16.2462 29.0331 16.6693C29.2166 16.9357 29.6197 17.5746 29.9286 18.0893C30.2148 18.5601 30.4751 19.0461 30.7081 19.5454C30.8277 19.8315 31.0275 20.3634 31.1521 20.7274C31.2766 21.0914 31.4811 21.8062 31.6066 22.3158C31.7322 22.8254 31.9083 23.6594 31.9984 24.169C32.0885 24.6785 32.2208 25.5571 32.2926 26.1213C32.3644 26.6856 32.468 27.6684 32.5223 28.3054C32.5766 28.9424 32.6565 30.2082 32.6993 31.1182C32.7495 32.1832 32.7641 34.0111 32.7407 36.2475C32.7206 38.1585 32.6685 40.2881 32.6248 40.9797C32.5811 41.6714 32.5386 42.2452 32.5302 42.2548C32.5218 42.2643 32.0432 42.2117 31.4667 42.1377C30.8902 42.0638 30.128 41.9439 29.773 41.8716C29.3574 41.7826 28.9472 41.6702 28.5444 41.5348C28.2236 41.422 27.6633 41.1893 27.2993 41.0178C26.9353 40.8463 25.8035 40.2574 24.7843 39.7093C23.7651 39.1613 22.5647 38.5293 22.1167 38.3051C21.6688 38.081 20.8704 37.7037 20.3426 37.4676C19.8149 37.2316 18.9455 36.8881 18.4104 36.7051C17.8754 36.522 17.0358 36.2702 16.5444 36.1453C16.053 36.0203 15.2637 35.8583 14.7902 35.785C14.3167 35.7117 13.5426 35.633 13.0694 35.6096C12.4735 35.5865 11.8768 35.5991 11.2824 35.6472C10.7728 35.6913 10.0431 35.7872 9.66093 35.8602C9.09819 35.9821 8.54216 36.1331 7.9951 36.3126C7.38196 36.52 6.7802 36.7596 6.19232 37.0304C5.73473 37.2492 5.09948 37.5842 4.78059 37.7745C4.46171 37.9648 3.9624 38.2843 3.67121 38.4842C3.38002 38.684 2.85878 39.0731 2.51296 39.3487C2.16714 39.6244 1.52048 40.204 1.07605 40.6363C0.599046 41.0999 0.212629 41.5365 0.13294 41.7013C0.020799 41.9384 0 42.1114 0 42.8226C0 43.4066 0.0291943 43.7343 0.0956019 43.893C0.158956 44.041 0.273927 44.161 0.41912 44.2306C0.562026 44.3028 0.724867 44.3255 0.882093 44.2952C1.04007 44.26 1.18218 44.1741 1.28668 44.0505C1.44769 43.8592 1.45608 43.8098 1.45608 43.0648V42.2806L2.26688 41.5206C2.71281 41.1026 3.31161 40.5764 3.59754 40.3512C3.88347 40.1261 4.43452 39.7305 4.82194 39.4721C5.20936 39.2138 5.91366 38.8022 6.38691 38.5575C6.86015 38.3128 7.48551 38.0216 7.77683 37.9106C8.06815 37.7996 8.49992 37.6501 8.73648 37.5782C8.97304 37.5062 9.3755 37.3992 9.62998 37.3401C9.88446 37.2809 10.4346 37.1897 10.8519 37.1376C11.3794 37.0786 11.9095 37.0469 12.4403 37.0426C12.8967 37.0426 13.5381 37.0743 13.8658 37.1127C14.1934 37.151 14.7861 37.2424 15.1829 37.3154C15.5797 37.3885 16.2647 37.5517 16.7051 37.6781C17.1456 37.8046 17.759 37.9998 18.0685 38.1119C18.378 38.2241 18.914 38.4351 19.2598 38.5805C19.6056 38.726 20.4251 39.1089 21.0799 39.4316C21.7347 39.7542 23.2242 40.5249 24.3891 41.1444C25.554 41.7638 26.8561 42.4184 27.2827 42.5991C27.7366 42.7895 28.2006 42.9549 28.6727 43.0944C29.011 43.1861 29.6298 43.3199 30.0492 43.3911C30.4686 43.4622 31.3773 43.5813 32.0678 43.6551C32.7584 43.7289 33.9048 43.8196 34.6146 43.8566C35.3245 43.8935 36.2329 43.943 36.6333 43.9662C37.0338 43.9894 38.8207 44.0295 40.6044 44.0553C43.3596 44.095 43.8982 44.1179 44.1851 44.212C44.4289 44.3014 44.6619 44.4177 44.88 44.5587C45.0934 44.7042 45.2856 44.8786 45.4511 45.077C45.5818 45.255 45.6911 45.4478 45.7769 45.6513C45.8576 45.8619 45.8905 46.1581 45.8938 46.7053C45.8975 47.3112 45.8715 47.5395 45.7661 47.8248C45.6628 48.0713 45.5214 48.3 45.347 48.5025C45.1472 48.717 44.9093 48.8924 44.6453 49.0199C44.365 49.1447 44.07 49.2333 43.7674 49.2838C43.5067 49.3214 41.6611 49.3502 39.5387 49.3512C37.4673 49.3521 34.8642 49.382 33.754 49.4176C32.6437 49.4532 31.4524 49.4992 31.1066 49.52C30.7607 49.5408 30.0757 49.5875 29.5843 49.624C29.0929 49.6604 28.1696 49.7504 27.5326 49.8237C26.8956 49.897 25.8536 50.06 25.2161 50.186C24.5786 50.3119 23.8047 50.4918 23.4953 50.5858C23.2409 50.6594 22.9913 50.7484 22.7477 50.8522C22.6208 50.9292 22.5134 51.0343 22.4336 51.1595C22.3679 51.2608 22.3238 51.3745 22.3042 51.4937C22.3189 51.6117 22.3536 51.7263 22.4067 51.8327C22.4835 51.9804 22.6088 52.0971 22.7616 52.1631C23.0096 52.2749 23.0248 52.2734 23.6351 52.0786C23.9768 51.9696 24.6107 51.8012 25.0439 51.7044C25.4772 51.6077 26.2321 51.4705 26.7217 51.3997C27.2112 51.3289 28.0707 51.2269 28.6316 51.1732C29.1924 51.1194 30.3881 51.0281 31.2887 50.9701C32.4164 50.8975 34.6492 50.8489 38.4528 50.8143C43.7715 50.7659 43.9982 50.7588 44.4851 50.6255C44.8022 50.5346 45.1114 50.4176 45.4093 50.2758C45.9742 49.962 46.4581 49.5208 46.8227 48.9872C46.936 48.7831 47.0338 48.5708 47.1154 48.3521C47.1965 48.1207 47.2635 47.8847 47.3159 47.6452C47.3587 47.4197 47.3826 47.1911 47.3875 46.9617V46.6289L48.659 45.0627C49.3583 44.201 50.5562 42.7364 51.3209 41.8082C52.0856 40.88 53.3374 39.3759 54.1025 38.4659C54.8676 37.5559 55.8979 36.3496 56.3922 35.7854C56.8865 35.2212 57.5324 34.505 57.8269 34.1941C58.1902 33.8106 58.4807 33.5708 58.729 33.4494C59.0902 33.2971 59.4627 33.1733 59.8431 33.0791C60.2547 32.974 60.9307 32.8392 61.3452 32.7795C61.6009 32.7362 61.8588 32.7062 62.1177 32.6899C62.0616 32.8888 61.9904 33.0831 61.9047 33.2711C61.7771 33.5803 61.2021 34.9353 60.6266 36.2821C60.0511 37.6289 59.1719 39.669 58.672 40.8157C58.1721 41.9624 57.3313 43.8535 56.805 45.0184C56.2788 46.1833 55.3911 48.0597 54.8332 49.1881C54.2754 50.3165 53.6704 51.4631 53.4884 51.7361C53.3062 52.0109 53.087 52.2592 52.8369 52.474C52.6607 52.6068 52.248 52.8781 51.9208 53.0769C51.5937 53.2758 50.8074 53.7131 50.1747 54.0489C49.5419 54.3847 48.2771 55.0172 47.3624 55.4558C46.4477 55.8945 45.0151 56.5657 44.1778 56.9469C43.3406 57.328 42.2894 57.8009 41.8415 57.9965C41.3937 58.1921 40.5153 58.5437 39.8892 58.7778C39.263 59.012 38.3152 59.3384 37.7828 59.5032C37.2504 59.6679 36.4612 59.8916 36.0286 59.9999C35.5961 60.1081 34.9151 60.263 34.5147 60.3427C33.9749 60.4506 33.4622 60.4959 32.5292 60.5181C31.593 60.5405 31.0978 60.5217 30.5908 60.4445C30.2165 60.3875 29.5613 60.2635 29.1348 60.1689C28.7083 60.0743 27.7941 59.8084 27.1021 59.578C26.41 59.3476 25.3706 58.961 24.7912 58.7192C24.2118 58.4774 23.1549 58.0168 22.442 57.6954C21.7291 57.374 20.6098 56.8582 19.9545 56.5495C19.2992 56.2409 18.2419 55.758 17.6049 55.4763C16.9679 55.1945 16.0744 54.8154 15.6193 54.6335C15.1642 54.4516 14.2709 54.1259 13.6337 53.9097C12.9966 53.6934 11.8501 53.3262 11.0857 53.0937C10.3212 52.8613 9.17465 52.5334 8.53764 52.3652C7.90062 52.1971 6.60505 51.8835 5.65868 51.6682C4.71231 51.453 3.37952 51.1808 2.6969 51.0634L1.45646 50.8504V50.33C1.47147 50.0877 1.43737 49.8447 1.35622 49.6158C1.30311 49.5113 1.22504 49.4216 1.12893 49.3545C0.995339 49.306 0.853881 49.2829 0.711814 49.2863C0.620506 49.2758 0.528023 49.2889 0.443242 49.3244C0.358461 49.3599 0.284227 49.4166 0.227665 49.489C0.0344569 49.6905 0.0332039 49.6972 0.0119034 50.6042C-0.00438525 51.3018 0.0137825 51.5727 0.0890862 51.753C0.14412 51.8842 0.231084 51.9995 0.342062 52.0885C0.427014 52.1431 0.913543 52.2486 1.42313 52.3229C1.93271 52.3972 2.79651 52.5467 3.34243 52.6553C3.88835 52.7639 4.93083 52.9895 5.65893 53.1565C6.38703 53.3235 7.54854 53.6111 8.24006 53.7955C8.93157 53.98 10.0337 54.2942 10.6889 54.4932C11.344 54.6921 12.4311 55.0427 13.1046 55.2724C13.7781 55.5021 14.7013 55.839 15.1563 56.0213C15.6114 56.2036 16.5197 56.5915 17.175 56.8833C17.8303 57.1752 18.9918 57.7033 19.7561 58.0568C20.5204 58.4102 21.7776 58.9788 22.5495 59.32C23.3215 59.6612 24.4233 60.1305 24.9983 60.3631C25.5733 60.5956 26.3712 60.8915 26.7717 61.0204C27.1721 61.1493 27.8422 61.3462 28.2608 61.4564C28.6794 61.5667 29.3684 61.7196 29.7919 61.7947C30.2155 61.8699 30.8986 61.9556 31.3099 61.9853C31.8387 62.0154 32.3688 62.0164 32.8977 61.9885C33.3595 61.9605 34.121 61.8732 34.5892 61.7945C35.0574 61.7158 35.903 61.5335 36.4672 61.3893C37.0314 61.2451 38.1513 60.9066 38.9558 60.6375C39.7604 60.3684 40.8018 59.9947 41.2703 59.8078C41.7388 59.6208 42.7185 59.1993 43.4476 58.8708C44.1767 58.5423 45.3243 58.0205 45.9977 57.7112C46.671 57.4018 48.056 56.7362 49.0752 56.232C50.0944 55.7279 51.4146 55.0372 52.009 54.6973C52.6035 54.3573 53.3359 53.8984 53.6369 53.6774C54.0068 53.4275 54.3187 53.1012 54.5516 52.7205C54.7537 52.4152 55.1637 51.7063 55.4629 51.1451C55.7621 50.5839 56.3343 49.4373 56.7348 48.5971C57.1352 47.7568 57.832 46.2555 58.2831 45.261C58.7341 44.2665 59.6061 42.3007 60.2205 40.8929C60.835 39.4851 61.6865 37.5139 62.1125 36.5129C62.5385 35.5119 63.138 34.0921 63.4436 33.358C63.798 32.506 63.9991 31.935 63.9991 31.7793C63.9991 31.5886 63.9483 31.4847 63.7652 31.3016L63.5313 31.0677L62.9549 31.1127C62.6376 31.1377 62.0803 31.2028 61.7162 31.2579C61.3521 31.313 60.7264 31.4184 60.3263 31.4921C59.8686 31.5799 59.4158 31.6913 58.9696 31.8259C58.6257 31.9348 58.29 32.0679 57.9649 32.2242C57.7068 32.3605 57.3326 32.6849 56.7703 33.2598C56.3202 33.7201 55.5359 34.5734 55.0277 35.1558C54.5195 35.7382 53.626 36.7806 53.0414 37.4724C52.4567 38.1642 51.3393 39.5042 50.558 40.4507C49.7766 41.3972 48.6796 42.7374 48.1203 43.429C47.561 44.1207 47.0817 44.7111 47.0553 44.741C47.0289 44.771 46.9384 44.6816 46.8539 44.5424C46.7373 44.3579 46.6107 44.1799 46.4745 44.0093C46.3065 43.8146 46.1174 43.6391 45.9107 43.4862C45.6763 43.3244 45.4297 43.1811 45.1732 43.0574C44.9147 42.9407 44.6485 42.8415 44.3767 42.7606C44.0414 42.667 43.4395 42.6414 40.505 42.5967C38.594 42.5675 36.4644 42.5121 35.7728 42.4738C35.0811 42.4354 34.444 42.4037 34.3569 42.4036H34.1984L34.2429 41.7914C34.2679 41.4547 34.3627 40.5384 34.4546 39.7562C34.5466 38.974 34.723 37.7368 34.8464 37.0077C34.9699 36.2786 35.1616 35.2752 35.2725 34.7774C35.3833 34.2796 35.5648 33.5362 35.6762 33.1246C35.7876 32.713 36.0112 31.9782 36.1731 31.4918C36.335 31.0054 36.6042 30.2837 36.7711 29.888L37.0749 29.1686L37.2598 29.2643C37.3615 29.3169 37.8335 29.4931 38.3087 29.6559C38.7838 29.8186 39.524 30.0345 39.9546 30.1357C40.6544 30.3004 40.862 30.3201 41.928 30.3221C42.7271 30.3237 43.2391 30.2944 43.4833 30.2332C44.0357 30.093 44.5619 29.8645 45.0415 29.5566C45.3513 29.3432 45.6383 29.0986 45.898 28.8265C46.1375 28.5737 46.3578 28.3034 46.5571 28.018C46.6769 27.83 46.8866 27.4541 47.0233 27.183C47.16 26.9118 47.3742 26.4061 47.4995 26.0614C47.6248 25.7168 47.8277 25.0453 47.9514 24.5704C48.0751 24.0955 48.2351 23.3936 48.3071 23.0115C48.3792 22.6293 48.4853 21.9699 48.5433 21.5462C48.6013 21.1226 48.6943 20.3483 48.7501 19.8254C48.8058 19.3025 48.869 18.1391 48.8906 17.2398C48.9255 15.7916 48.9175 15.5858 48.8212 15.4386C48.7562 15.3422 48.6718 15.2604 48.5734 15.1983C48.4884 15.1528 48.099 15.1269 47.5724 15.1316C47.0983 15.1359 46.2568 15.1828 45.7027 15.2359C45.1486 15.289 44.1767 15.4198 43.5433 15.5266C42.91 15.6333 42.0791 15.7988 41.6968 15.8943C41.3145 15.9898 40.7195 16.1587 40.3732 16.2702C39.8425 16.459 39.3232 16.6784 38.8179 16.9273C38.3388 17.1594 37.8775 17.4263 37.4376 17.726C37.1232 17.9769 36.8319 18.2553 36.567 18.558C36.2892 18.8984 36.047 19.2663 35.8442 19.6561C35.6477 20.0656 35.4862 20.4909 35.3614 20.9275C35.195 21.5504 35.1845 21.6773 35.1827 23.0785C35.1811 24.3565 35.2022 24.6805 35.3312 25.3619C35.414 25.7987 35.5898 26.5433 35.7219 27.0165C35.824 27.3528 35.9037 27.6955 35.9606 28.0423C35.9598 28.1332 35.7875 28.5801 35.5778 29.035C35.3681 29.49 35.0097 30.4282 34.7815 31.1198C34.5534 31.8115 34.3384 32.4816 34.3035 32.609C34.2527 32.7958 34.2312 32.6418 34.193 31.8147C34.167 31.2509 34.1165 30.2975 34.0809 29.6972C34.0453 29.0969 33.9721 28.1435 33.918 27.5797C33.8639 27.0158 33.7589 26.1071 33.6839 25.561C33.609 25.015 33.4737 24.1662 33.3832 23.6748C33.2928 23.1834 33.1302 22.4208 33.0225 21.9803C32.9147 21.5397 32.7225 20.8584 32.5954 20.4662C32.4682 20.074 32.2255 19.4243 32.0557 19.0222C31.7835 18.4258 31.4769 17.8457 31.1374 17.2849C30.802 16.7313 30.405 16.1036 30.2553 15.8898L29.9829 15.5014L30.3538 14.641C30.5578 14.1677 30.8126 13.5125 30.9201 13.1849C31.0276 12.8572 31.1884 12.3024 31.2773 11.9518C31.3663 11.6013 31.4831 11.0056 31.5367 10.6282C31.5951 10.1882 31.6281 9.74513 31.6356 9.3013C31.6342 8.91422 31.6109 8.52752 31.5659 8.14305C31.5047 7.76569 31.4151 7.3935 31.2978 7.02966C31.1761 6.67206 31.0232 6.32586 30.8408 5.99508C30.6633 5.70459 30.4666 5.42631 30.2519 5.1621C29.9944 4.87384 29.7114 4.60943 29.4063 4.37211C29.1224 4.15434 28.7055 3.86528 28.48 3.72983C28.2544 3.59438 27.8225 3.36985 27.5203 3.23077C27.2181 3.09169 26.6729 2.86991 26.3089 2.73798C25.9449 2.60604 25.2777 2.39278 24.8264 2.2641C24.3751 2.13542 23.422 1.91327 22.7089 1.77043C21.9958 1.62759 20.9627 1.44917 20.4139 1.37387C19.8651 1.29856 18.9866 1.19431 18.4616 1.14219C17.9366 1.09007 17.1496 1.0308 16.7127 1.01038C16.2757 0.989954 15.8556 1.0006 15.7787 1.03418M16.8327 3.57146C16.8555 4.16298 16.9188 5.06387 16.9733 5.57358C17.0278 6.08329 17.1332 6.8575 17.2073 7.29441C17.2815 7.73133 17.4192 8.39853 17.5133 8.77731C17.6074 9.15608 17.8015 9.80725 17.9458 10.2242C18.0809 10.6202 18.2364 11.0089 18.4116 11.3888C18.5243 11.6122 18.741 11.9886 18.894 12.2251C19.085 12.5109 19.2958 12.783 19.5246 13.0395C19.7564 13.2847 20.0093 13.5091 20.2804 13.7101C20.5413 13.891 20.8133 14.0553 21.0948 14.2021C21.3861 14.3422 21.6853 14.4653 21.9908 14.5708C22.399 14.6939 22.8144 14.792 23.2346 14.8644C23.6519 14.9363 24.291 15.0136 24.6551 15.036C25.2354 15.0549 25.8163 15.0443 26.3955 15.0043C26.7979 14.9855 27.199 14.9458 27.5972 14.8854C27.7032 14.8455 27.6314 14.7328 27.0825 14.0779C26.7317 13.6593 26.0568 12.9188 25.583 12.4324C25.1091 11.946 24.3936 11.2589 23.9933 10.9057C23.593 10.5525 23.0568 10.0998 22.802 9.89997C22.5471 9.70012 22.1898 9.43637 22.0077 9.31546C21.8292 9.19666 21.6582 9.06693 21.4956 8.92704C21.389 8.82295 21.3126 8.6918 21.2747 8.54764C21.2506 8.40604 21.2735 8.26045 21.3398 8.13303C21.4025 8.01523 21.4883 7.91122 21.592 7.82718C21.7036 7.76165 21.8302 7.72605 21.9596 7.72381C22.1093 7.73098 22.2562 7.76768 22.3916 7.83182C22.6244 7.96657 22.8497 8.11371 23.0667 8.27261C23.3216 8.45567 23.8427 8.86001 24.225 9.17099C24.6073 9.48198 25.503 10.3186 26.2172 11.03C26.9314 11.7415 27.8336 12.7108 28.2244 13.184C28.6152 13.6573 28.9576 14.0528 28.9859 14.0632C29.0142 14.0736 29.1428 13.8056 29.2716 13.4676C29.4004 13.1295 29.5827 12.608 29.6768 12.3086C29.7709 12.0091 29.9134 11.4582 29.9934 11.0842C30.1073 10.5528 30.1403 10.1729 30.1438 9.34528C30.1475 8.50579 30.1227 8.19041 30.024 7.82304C29.9357 7.51626 29.822 7.21739 29.6839 6.92955C29.3759 6.31038 28.9187 5.77754 28.3535 5.37899C28.0098 5.13721 27.6511 4.91749 27.2795 4.72118C26.9537 4.55303 26.4092 4.30908 26.0686 4.1789C25.7281 4.04871 25.0363 3.82518 24.5315 3.68234C24.0266 3.5395 23.1741 3.33389 22.6371 3.22551C22.1001 3.11713 21.173 2.95487 20.5768 2.86465C19.9807 2.77444 19.0496 2.65453 18.508 2.59802C17.9665 2.54151 17.3586 2.49528 17.1575 2.49528H16.7898L16.8313 3.57083M45.7002 16.6981C45.227 16.7482 44.3782 16.8671 43.814 16.9612C43.2498 17.0553 42.3964 17.2309 41.9176 17.3515C41.4388 17.4722 40.7835 17.6672 40.4615 17.7851C40.1395 17.903 39.6675 18.1036 39.4127 18.2309C39.1172 18.3819 38.8299 18.5485 38.5522 18.7302C38.2771 18.9256 38.0191 19.1443 37.7813 19.3837C37.5211 19.661 37.3037 19.9755 37.1361 20.3168C36.9589 20.6888 36.8229 21.0791 36.7305 21.4807C36.627 21.9804 36.5821 22.4905 36.5966 23.0006C36.5966 23.4976 36.6265 24.133 36.6625 24.4124C36.6985 24.6918 36.7904 25.2275 36.8669 25.6027C36.9433 25.978 37.0145 26.2935 37.0251 26.3044C37.2325 26.0736 37.4262 25.831 37.6054 25.5777C37.9138 25.1673 38.4496 24.5188 38.7957 24.1368C39.1418 23.7547 39.7556 23.1489 40.1593 22.7909C40.563 22.433 41.1029 21.9773 41.3589 21.7784C41.6149 21.5796 42.083 21.2544 42.3989 21.0559C42.843 20.7772 43.0327 20.6952 43.2347 20.6952C43.4436 20.6952 43.5411 20.7403 43.721 20.9208C43.786 20.9726 43.8396 21.0373 43.8784 21.1108C43.9172 21.1843 43.9404 21.265 43.9465 21.3479C43.9425 21.4779 43.9153 21.6061 43.8661 21.7265C43.8166 21.835 43.5041 22.089 43.0553 22.3852C42.6536 22.6504 42.0868 23.0651 41.7956 23.3068C41.5044 23.5485 40.912 24.0928 40.4793 24.5164C40.0187 24.9703 39.5812 25.447 39.1684 25.9448C38.8803 26.3067 38.4727 26.8595 38.2628 27.1737C38.0529 27.488 37.8598 27.781 37.8337 27.8253C37.8027 27.8779 37.8734 27.9437 38.037 28.0143C38.1748 28.074 38.5734 28.2213 38.9224 28.3419C39.2713 28.4624 39.8671 28.63 40.246 28.7154C40.8058 28.8407 41.1278 28.8696 41.9611 28.8696C42.7943 28.8696 43.0554 28.8462 43.351 28.7443C43.5877 28.6604 43.8196 28.5637 44.0459 28.4548C44.3417 28.2738 44.6124 28.0548 44.8511 27.8032C45.2445 27.3999 45.3936 27.1783 45.726 26.5044C45.9718 25.9941 46.1819 25.4675 46.355 24.9283C46.4803 24.5083 46.6592 23.8045 46.7521 23.3644C46.8449 22.9244 46.9955 22.0469 47.0866 21.4145C47.1777 20.7822 47.2977 19.7194 47.3532 19.0529C47.4088 18.3865 47.4544 17.5599 47.4544 17.2163V16.5916L47.0077 16.599C46.762 16.603 46.1737 16.6477 45.7006 16.6984" fill="#FEFEFE"/>
</g>
</svg>
