<svg width="32" height="32" viewBox="0 0 32 32" fill="none" xmlns="http://www.w3.org/2000/svg">
<g id="icon/social/in">
<path id="Vector" d="M27.7778 2C28.6324 2 29.452 2.33948 30.0562 2.94377C30.6605 3.54805 31 4.36764 31 5.22222V27.7778C31 28.6324 30.6605 29.452 30.0562 30.0562C29.452 30.6605 28.6324 31 27.7778 31H5.22222C4.36764 31 3.54805 30.6605 2.94377 30.0562C2.33948 29.452 2 28.6324 2 27.7778V5.22222C2 4.36764 2.33948 3.54805 2.94377 2.94377C3.54805 2.33948 4.36764 2 5.22222 2H27.7778ZM26.9722 26.9722V18.4333C26.9722 17.0404 26.4189 15.7044 25.4339 14.7195C24.4489 13.7345 23.113 13.1811 21.72 13.1811C20.3506 13.1811 18.7556 14.0189 17.9822 15.2756V13.4872H13.4872V26.9722H17.9822V19.0294C17.9822 17.7889 18.9811 16.7739 20.2217 16.7739C20.8199 16.7739 21.3936 17.0115 21.8166 17.4345C22.2396 17.8575 22.4772 18.4312 22.4772 19.0294V26.9722H26.9722ZM8.25111 10.9578C8.96896 10.9578 9.65742 10.6726 10.165 10.165C10.6726 9.65742 10.9578 8.96896 10.9578 8.25111C10.9578 6.75278 9.74944 5.52833 8.25111 5.52833C7.52899 5.52833 6.83644 5.8152 6.32582 6.32582C5.8152 6.83644 5.52833 7.52899 5.52833 8.25111C5.52833 9.74944 6.75278 10.9578 8.25111 10.9578ZM10.4906 26.9722V13.4872H6.02778V26.9722H10.4906Z" fill="#FEFEFE"/>
</g>
</svg>
