<svg width="116" height="23" viewBox="0 0 116 23" fill="none" xmlns="http://www.w3.org/2000/svg">
<g id="Logo Text">
<path id="e" d="M110.416 18.3656C111.261 18.1168 111.762 17.8056 112.168 17.1368C113.192 17.8037 114.11 18.3997 115.137 19.0687C114.483 20.0154 112.719 21.2411 111.159 21.5909C110.067 21.8358 108.961 21.8927 107.85 21.7777C106.195 21.6063 104.714 21.0263 103.481 19.9048C102.467 18.9829 101.802 17.8522 101.465 16.5411C100.996 14.7209 101.099 12.9361 101.951 11.2407C103.049 9.05519 104.827 7.68934 107.278 7.24656C109.164 6.9059 110.964 7.20511 112.6 8.2133C114.312 9.26812 115.346 10.8034 115.786 12.7324C116.14 14.2867 115.948 15.672 115.948 15.672C112.371 15.672 108.726 15.672 105.152 15.672C105.161 15.733 105.162 15.7776 105.174 15.8196C105.582 17.3246 106.816 18.3553 108.403 18.5198C109.079 18.5899 109.745 18.5573 110.416 18.3656ZM107.023 13.0904C108.731 13.0904 110.44 13.0904 112.15 13.0904C112.123 12.816 111.996 12.4048 111.825 12.0483C111.463 11.2892 110.916 10.7094 110.12 10.3771C109.556 10.1413 108.964 10.0738 108.356 10.1222C106.982 10.2317 105.991 10.8903 105.402 12.1171C105.255 12.422 105.148 12.7417 105.089 13.0904C105.731 13.0904 106.357 13.0904 107.023 13.0904Z" fill="white"/>
<path id="Vector" d="M95.0352 2.18874H96.3873V0.861816H97.7395V2.18874H99.0916V21.6407H97.7395V22.9965H96.3873V21.6407H95.0352C95.0352 15.157 95.0732 8.67237 95.0352 2.18874Z" fill="white"/>
<path id="Vector_2" d="M90.4308 8.96813C91.5249 10.0331 92.164 11.3226 92.458 12.7914C92.6303 13.6519 92.6697 14.5209 92.5723 15.3922C92.3561 17.3269 91.5808 18.9845 90.0747 20.2626C89.1008 21.089 87.9676 21.577 86.7023 21.7599C85.6897 21.9062 84.6879 21.8675 83.7036 21.567C82.8315 21.3006 82.074 20.8454 81.4334 20.199C81.3898 20.1549 81.361 20.0963 81.3252 20.0445C81.3085 20.0558 81.2918 20.0671 81.2751 20.0784C81.2751 20.5421 81.2751 21.0059 81.2751 21.4808C80.0465 21.4808 78.8338 21.4808 77.6135 21.4808C77.6135 14.9982 77.6135 8.52229 77.6135 2.03467C78.9239 2.03467 80.2336 2.03467 81.5633 2.03467C81.5633 4.23554 81.5633 6.43443 81.5633 8.66605C81.615 8.62766 81.6398 8.61209 81.6613 8.59291C82.5311 7.81782 83.5518 7.37038 84.7032 7.21032C85.9651 7.03488 87.1926 7.1653 88.3778 7.63939C89.1448 7.94617 89.8255 8.3877 90.4308 8.96813ZM85.4289 10.6131C85.1271 10.621 84.8216 10.6022 84.5239 10.6414C83.252 10.8088 82.3173 11.4661 81.7921 12.6341C81.2712 13.7925 81.2666 14.9843 81.7159 16.1686C82.0109 16.9463 82.5367 17.5382 83.2765 17.9319C83.8089 18.2151 84.3835 18.3463 84.9841 18.349C86.4143 18.3553 87.5139 17.7598 88.1975 16.5007C88.7732 15.4406 88.8248 14.3103 88.4876 13.164C88.2383 12.3168 87.7456 11.6364 86.998 11.1499C86.5317 10.8464 86.0158 10.6795 85.4289 10.6131Z" fill="white"/>
<path id="Vector_3" d="M34.5205 21.2476C33.4309 21.7813 32.2901 21.9164 31.1086 21.808C30.0409 21.71 29.0454 21.3918 28.1366 20.8245C26.7665 19.9694 25.8216 18.7659 25.2925 17.2512C24.6374 15.3758 24.6201 13.485 25.3417 11.6276C26.1885 9.44764 27.802 8.10778 30.075 7.56691C31.1904 7.3015 32.3171 7.28958 33.4395 7.55517C34.4402 7.79197 35.3069 8.26579 36.0225 9.00645C36.0537 9.03874 36.085 9.07089 36.1169 9.10258C36.1204 9.10606 36.1274 9.10605 36.1538 9.11396C36.1538 8.56284 36.1538 8.01742 36.1538 7.46115C37.3816 7.46115 38.5883 7.46115 39.7962 7.46115C39.8338 7.58935 39.8468 21.1991 39.8074 21.4868C38.6009 21.4868 37.3933 21.4868 36.1613 21.4868C36.1613 20.9938 36.1613 20.5 36.1613 20.0062C35.6749 20.5119 35.1466 20.9311 34.5205 21.2476ZM35.9287 15.4709C36.0703 14.7964 36.0684 14.1205 35.9184 13.4496C35.6853 12.4071 35.1483 11.5694 34.1948 11.0404C33.4745 10.6408 32.6945 10.5234 31.8819 10.6339C30.6971 10.7949 29.8048 11.4045 29.2497 12.4525C28.6168 13.6473 28.5828 14.896 29.0723 16.1485C29.4026 16.9938 29.992 17.6213 30.818 18.0138C31.4619 18.3197 32.1462 18.4039 32.8492 18.328C33.7033 18.2358 34.4441 17.8989 35.0345 17.2652C35.5012 16.7642 35.7795 16.1667 35.9287 15.4709Z" fill="white"/>
<path id="d" d="M46.835 21.4357C44.724 20.6418 43.3616 19.1549 42.6471 17.0639C42.2599 15.9307 42.1723 14.7615 42.2907 13.5745C42.4041 12.4379 42.7267 11.3655 43.3219 10.3854C44.3859 8.63322 45.9385 7.57282 47.9673 7.23474C49.249 7.02117 50.5089 7.12653 51.7169 7.64222C52.2416 7.86625 52.7177 8.16749 53.1479 8.5407C53.19 8.57721 53.2337 8.61187 53.3038 8.66983C53.3038 6.44044 53.3038 4.24212 53.3038 2.03467C54.6289 2.03467 55.9341 2.03467 57.2527 2.03467C57.2527 8.51214 57.2527 14.9919 57.2527 21.4827C56.0421 21.4827 54.8289 21.4827 53.6016 21.4827C53.6016 21.0227 53.6016 20.57 53.6016 20.0858C53.5508 20.1247 53.5213 20.1423 53.4978 20.1659C52.5342 21.1328 51.3618 21.66 50.0078 21.8014C48.9285 21.9141 47.8749 21.7955 46.835 21.4357ZM47.9195 17.8378C48.5976 18.247 49.3366 18.4024 50.1212 18.3389C51.5852 18.2205 52.6201 17.4982 53.1683 16.1341C53.5122 15.2783 53.5462 14.3896 53.3621 13.491C53.2037 12.7175 52.8594 12.0407 52.2702 11.5033C51.5713 10.8659 50.731 10.5865 49.7938 10.6065C48.2857 10.6387 47.1976 11.3417 46.5555 12.6974C46.168 13.5154 46.0942 14.3864 46.2461 15.2703C46.4315 16.3484 46.954 17.2226 47.9195 17.8378Z" fill="white"/>
<path id="Vector_4" d="M74.7132 18.6787C74.7132 19.6211 74.7132 20.5442 74.7132 21.4803C73.4941 21.4803 72.2797 21.4803 71.0439 21.4803C71.0439 20.9907 71.0439 20.5012 71.0439 19.981C70.9884 20.029 70.9578 20.0505 70.9332 20.0775C70.0672 21.026 68.991 21.584 67.7204 21.7632C66.0555 21.998 64.4843 21.7181 63.0417 20.8434C61.6145 19.9781 60.6662 18.7241 60.1206 17.1637C59.7275 16.0394 59.6144 14.88 59.7201 13.6966C59.7976 12.8275 60.0032 11.9919 60.379 11.2024C61.2264 9.4222 62.607 8.24689 64.4989 7.68433C65.8078 7.29512 67.1366 7.24966 68.4671 7.59452C69.4046 7.83752 70.2161 8.30061 70.8919 8.99437C70.9309 9.03442 70.9729 9.07162 71.0381 9.13356C71.0381 8.56068 71.0381 8.01853 71.0381 7.46366C72.2691 7.46366 73.4827 7.46366 74.7132 7.46366C74.7132 11.1999 74.7132 14.9297 74.7132 18.6787ZM65.9429 10.8326C64.9101 11.243 64.2262 11.9866 63.865 13.0219C63.536 13.9652 63.5315 14.9225 63.8371 15.8714C64.1277 16.7737 64.6827 17.4766 65.529 17.9306C66.2763 18.3315 67.078 18.4325 67.9082 18.2987C69.2191 18.0874 70.1329 17.3608 70.6111 16.1321C71.029 15.0584 71.0166 13.9641 70.6308 12.8806C70.4045 12.245 70.0296 11.7009 69.4766 11.3038C68.3978 10.5295 67.219 10.4132 65.9429 10.8326Z" fill="white"/>
<path id="Vector_5" d="M23.6447 10.8501C23.3229 10.8763 23.199 10.8764 22.8958 10.9142C22.2544 10.9942 21.6447 11.1731 21.1062 11.5376C20.4449 11.9853 20.0711 12.607 19.9779 13.3887C19.9559 13.5726 19.9468 13.7591 19.9467 13.9444C19.9447 16.399 19.9453 18.8536 19.9453 21.3082C19.9453 21.3773 19.9453 21.4465 19.9453 21.5246C18.6026 21.5246 17.2746 21.5246 15.9431 21.5246C15.9431 16.8468 15.9431 12.4985 15.9431 7.82204C17.2051 7.82204 18.4565 7.82204 19.7333 7.82204C19.7333 8.25527 19.7333 8.36533 19.7333 8.84126C20.8686 7.83015 22.0498 7.26655 23.6435 7.15869L23.6447 10.8501Z" fill="white"/>
<path id="Vector_6" d="M9.21602 3.01562C11.2462 3.01562 13.2568 3.01562 15.2792 3.01562C15.2792 4.18825 15.2792 5.35011 15.2792 6.52506C13.4334 6.52506 11.5941 6.52506 9.73526 6.52506C9.73526 11.5262 9.73526 16.5145 9.73526 21.5156C8.38048 21.5156 7.04516 21.5156 5.69125 21.5156C5.69125 16.5345 5.69125 11.5459 5.69125 6.52847C3.8288 6.52838 1.98469 6.52848 0.128662 6.52841C0.128662 5.35748 0.128662 4.19554 0.128662 3.01563C3.1532 3.01563 6.17481 3.01563 9.21602 3.01562Z" fill="white"/>
</g>
</svg>
