<svg width="107" height="48" viewBox="0 0 107 48" fill="none" xmlns="http://www.w3.org/2000/svg">
<g id="Mask group">
<mask id="mask0_9_10103" style="mask-type:alpha" maskUnits="userSpaceOnUse" x="0" y="0" width="107" height="48">
<g id="Group">
<path id="Vector" d="M82.925 0H24.075C10.7787 0 0 10.7452 0 24C0 37.2548 10.7787 48 24.075 48H82.925C96.2213 48 107 37.2548 107 24C107 10.7452 96.2213 0 82.925 0Z" fill="url(#paint0_linear_9_10103)"/>
</g>
</mask>
<g mask="url(#mask0_9_10103)">
<g id="Group_2">
<path id="Vector_2" d="M73.83 33.0665C80.0349 33.0665 85.065 28.0521 85.065 21.8665C85.065 15.6809 80.0349 10.6665 73.83 10.6665C67.6251 10.6665 62.595 15.6809 62.595 21.8665C62.595 28.0521 67.6251 33.0665 73.83 33.0665Z" fill="url(#paint1_linear_9_10103)"/>
<path id="Vector_3" d="M-2.13989 29.0667V37.0667L2.40761 58.1334C10.5218 61.0667 27.3386 67.0934 29.6926 67.7334C32.6351 68.5334 58.5826 72.8 59.9201 73.3334C60.9901 73.76 97.6376 60.3558 115.828 53.6L109.943 31.2L86.4026 27.4667L62.8626 25.3334L54.0351 26.4L40.3926 21.8667L-2.13989 29.0667Z" fill="url(#paint2_linear_9_10103)"/>
<path id="Vector_4" d="M22.2024 35.1999L12.3049 49.8666L62.0599 51.1999L50.5574 39.1999H49.2199L43.6024 30.6666H40.9274L33.7049 20.2666L25.6799 35.1999H22.2024Z" fill="url(#paint3_linear_9_10103)"/>
<path id="Vector_5" d="M55.9075 34.133L46.01 48.7997L95.765 50.133L84.2625 38.133H82.925L77.3075 29.5997H74.6325L67.41 19.1997L59.385 34.133H55.9075Z" fill="url(#paint4_linear_9_10103)"/>
<path id="Vector_6" d="M79.1137 37.7376L66.875 55.9448L128.4 57.5997L114.176 42.7032H112.523L105.576 32.1101H102.268L93.3372 19.1997L83.414 37.7376H79.1137Z" fill="url(#paint5_linear_9_10103)"/>
<path id="Vector_7" d="M-2.74114 35.0711L-14.98 53.278L46.545 54.9332L32.3215 40.0367H30.6676L23.7212 29.4436H20.4134L11.4824 16.5332L1.559 35.0711H-2.74114Z" fill="url(#paint6_linear_9_10103)"/>
<path id="Vector_8" d="M21.4051 37.591C21.4619 37.3043 21.8732 37.3043 21.93 37.591L24.6161 51.1481C24.6487 51.313 24.5222 51.4664 24.3536 51.4664H18.9815C18.8129 51.4664 18.6864 51.313 18.719 51.1481L21.4051 37.591Z" fill="url(#paint7_linear_9_10103)"/>
<path id="Vector_9" d="M17.66 40.2575C17.7168 39.9708 18.1281 39.9708 18.1849 40.2575L20.871 53.8145C20.9036 53.9793 20.7771 54.1329 20.6085 54.1329H15.2364C15.0678 54.1329 14.9413 53.9793 14.9739 53.8145L17.66 40.2575Z" fill="url(#paint8_linear_9_10103)"/>
<path id="Vector_10" d="M25.6867 40.0741C25.7499 39.7976 26.1451 39.7976 26.2083 40.0741L29.3479 53.8074C29.386 53.9743 29.2588 54.1332 29.0871 54.1332H22.8079C22.6362 54.1332 22.5089 53.9743 22.5471 53.8074L25.6867 40.0741Z" fill="url(#paint9_linear_9_10103)"/>
<path id="Vector_11" d="M30.5016 38.474C30.5649 38.1975 30.96 38.1975 31.0232 38.474L34.1628 52.2072C34.201 52.3742 34.0738 52.5331 33.902 52.5331H27.6228C27.4511 52.5331 27.3239 52.3742 27.362 52.2072L30.5016 38.474Z" fill="url(#paint10_linear_9_10103)"/>
<path id="Vector_12" d="M34.2467 39.0072C34.31 38.7307 34.7051 38.7307 34.7684 39.0072L37.908 52.7404C37.9461 52.9074 37.8189 53.0664 37.6471 53.0664H31.368C31.1962 53.0664 31.069 52.9074 31.1071 52.7404L34.2467 39.0072Z" fill="url(#paint11_linear_9_10103)"/>
<path id="Vector_13" d="M37.9916 40.0741C38.0548 39.7976 38.45 39.7976 38.5132 40.0741L41.6528 53.8074C41.691 53.9743 41.5638 54.1332 41.392 54.1332H35.1128C34.9411 54.1332 34.8139 53.9743 34.852 53.8074L37.9916 40.0741Z" fill="url(#paint12_linear_9_10103)"/>
<path id="Vector_14" d="M41.2018 36.8739C41.265 36.5974 41.6602 36.5974 41.7234 36.8739L44.863 50.6071C44.9012 50.7741 44.774 50.9331 44.6022 50.9331H38.323C38.1513 50.9331 38.0241 50.7741 38.0622 50.6071L41.2018 36.8739Z" fill="url(#paint13_linear_9_10103)"/>
<path id="Vector_15" d="M46.5517 39.0072C46.6149 38.7307 47.0101 38.7307 47.0733 39.0072L50.2129 52.7404C50.251 52.9074 50.1238 53.0664 49.9521 53.0664H43.6729C43.5012 53.0664 43.3739 52.9074 43.4121 52.7404L46.5517 39.0072Z" fill="url(#paint14_linear_9_10103)"/>
<path id="Vector_16" d="M51.3666 41.1405C51.4298 40.864 51.825 40.864 51.8882 41.1405L55.0279 54.8738C55.0659 55.0407 54.9385 55.1997 54.7668 55.1997H48.4878C48.3161 55.1997 48.1889 55.0407 48.227 54.8738L51.3666 41.1405Z" fill="url(#paint15_linear_9_10103)"/>
<path id="Vector_17" d="M56.1815 38.474C56.2452 38.1975 56.64 38.1975 56.7037 38.474L59.8431 52.2072C59.8811 52.3742 59.7537 52.5331 59.582 52.5331H53.303C53.1313 52.5331 53.0041 52.3742 53.0422 52.2072L56.1815 38.474Z" fill="url(#paint16_linear_9_10103)"/>
<path id="Vector_18" d="M59.3915 41.1405C59.4551 40.864 59.85 40.864 59.9136 41.1405L63.053 54.8738C63.091 55.0407 62.9637 55.1997 62.7919 55.1997H56.5132C56.3415 55.1997 56.2141 55.0407 56.2521 54.8738L59.3915 41.1405Z" fill="url(#paint17_linear_9_10103)"/>
<path id="Vector_19" d="M62.0665 42.2074C62.1302 41.9309 62.525 41.9309 62.5887 42.2074L65.7281 55.9407C65.7661 56.1076 65.6387 56.2665 65.467 56.2665H59.1882C59.0165 56.2665 58.8892 56.1076 58.9272 55.9407L62.0665 42.2074Z" fill="url(#paint18_linear_9_10103)"/>
<path id="Vector_20" d="M65.8114 39.0072C65.8751 38.7307 66.2699 38.7307 66.3336 39.0072L69.4729 52.7404C69.5109 52.9074 69.3836 53.0664 69.2119 53.0664H62.9331C62.7614 53.0664 62.634 52.9074 62.672 52.7404L65.8114 39.0072Z" fill="url(#paint19_linear_9_10103)"/>
<path id="Vector_21" d="M70.0914 41.1405C70.1551 40.864 70.5499 40.864 70.6136 41.1405L73.753 54.8738C73.791 55.0407 73.6636 55.1997 73.4919 55.1997H67.2131C67.0414 55.1997 66.9141 55.0407 66.9521 54.8738L70.0914 41.1405Z" fill="url(#paint20_linear_9_10103)"/>
<path id="Vector_22" d="M74.3715 37.9408C74.4351 37.6643 74.83 37.6643 74.8936 37.9408L78.033 51.674C78.071 51.841 77.9437 51.9999 77.7719 51.9999H71.4932C71.3214 51.9999 71.1941 51.841 71.2321 51.674L74.3715 37.9408Z" fill="url(#paint21_linear_9_10103)"/>
<path id="Vector_23" d="M78.6515 40.0741C78.7152 39.7976 79.11 39.7976 79.1737 40.0741L82.313 53.8074C82.351 53.9743 82.2237 54.1332 82.052 54.1332H75.7732C75.6015 54.1332 75.4741 53.9743 75.5121 53.8074L78.6515 40.0741Z" fill="url(#paint22_linear_9_10103)"/>
<path id="Vector_24" d="M82.9315 37.4076C82.9952 37.1311 83.39 37.1311 83.4537 37.4076L86.5931 51.1408C86.6311 51.3078 86.5037 51.4667 86.332 51.4667H80.0532C79.8815 51.4667 79.7542 51.3078 79.7921 51.1408L82.9315 37.4076Z" fill="url(#paint23_linear_9_10103)"/>
<path id="Vector_25" d="M87.2115 39.0072C87.2752 38.7307 87.6701 38.7307 87.7337 39.0072L90.8731 52.7404C90.9111 52.9074 90.7837 53.0664 90.612 53.0664H84.3333C84.1615 53.0664 84.0342 52.9074 84.0722 52.7404L87.2115 39.0072Z" fill="url(#paint24_linear_9_10103)"/>
<path id="Vector_26" d="M91.4913 35.2738C91.555 34.9973 91.9498 34.9973 92.0135 35.2738L95.1529 49.007C95.1909 49.174 95.0635 49.333 94.8918 49.333H88.613C88.4413 49.333 88.314 49.174 88.352 49.007L91.4913 35.2738Z" fill="url(#paint25_linear_9_10103)"/>
<path id="Vector_27" d="M95.7714 36.8739C95.835 36.5974 96.2299 36.5974 96.2935 36.8739L99.4329 50.6071C99.4709 50.7741 99.3436 50.9331 99.1718 50.9331H92.8931C92.7213 50.9331 92.594 50.7741 92.632 50.6071L95.7714 36.8739Z" fill="url(#paint26_linear_9_10103)"/>
<path id="Vector_28" d="M14.9867 39.0072C15.05 38.7307 15.4451 38.7307 15.5083 39.0072L18.6479 52.7404C18.6861 52.9074 18.5589 53.0664 18.3871 53.0664H12.1079C11.9362 53.0664 11.809 52.9074 11.8471 52.7404L14.9867 39.0072Z" fill="url(#paint27_linear_9_10103)"/>
<path id="Vector_29" d="M11.2416 35.2738C11.3048 34.9973 11.7 34.9973 11.7632 35.2738L14.9028 49.007C14.941 49.174 14.8137 49.333 14.642 49.333H8.36282C8.19109 49.333 8.06387 49.174 8.10201 49.007L11.2416 35.2738Z" fill="url(#paint28_linear_9_10103)"/>
</g>
</g>
</g>
<defs>
<linearGradient id="paint0_linear_9_10103" x1="53.5" y1="0" x2="53.5" y2="48" gradientUnits="userSpaceOnUse">
<stop stop-color="#ABFAFF"/>
<stop offset="1" stop-color="#D5FFAB"/>
</linearGradient>
<linearGradient id="paint1_linear_9_10103" x1="73.83" y1="8.2665" x2="73.83" y2="33.0665" gradientUnits="userSpaceOnUse">
<stop offset="0.261829" stop-color="#A5C5EB"/>
<stop offset="0.699362" stop-color="#51EAFF" stop-opacity="0"/>
</linearGradient>
<linearGradient id="paint2_linear_9_10103" x1="56.8439" y1="21.8667" x2="56.8439" y2="73.3435" gradientUnits="userSpaceOnUse">
<stop stop-color="#6A86EB"/>
<stop offset="0.553516" stop-color="#010203"/>
</linearGradient>
<linearGradient id="paint3_linear_9_10103" x1="37.1824" y1="20.2666" x2="37.1824" y2="51.1999" gradientUnits="userSpaceOnUse">
<stop offset="0.290234" stop-color="#6783CA"/>
<stop offset="1" stop-color="#271B59"/>
</linearGradient>
<linearGradient id="paint4_linear_9_10103" x1="70.8875" y1="19.1997" x2="70.8875" y2="50.133" gradientUnits="userSpaceOnUse">
<stop offset="0.290234" stop-color="#6783CA"/>
<stop offset="1" stop-color="#271B59"/>
</linearGradient>
<linearGradient id="paint5_linear_9_10103" x1="97.6375" y1="19.1997" x2="97.6375" y2="57.5997" gradientUnits="userSpaceOnUse">
<stop offset="0.290234" stop-color="#6783CA"/>
<stop offset="1" stop-color="#271B59"/>
</linearGradient>
<linearGradient id="paint6_linear_9_10103" x1="15.7825" y1="16.5332" x2="15.7825" y2="54.9332" gradientUnits="userSpaceOnUse">
<stop offset="0.290234" stop-color="#6783CA"/>
<stop offset="1" stop-color="#271B59"/>
</linearGradient>
<linearGradient id="paint7_linear_9_10103" x1="21.6676" y1="36.2664" x2="21.6676" y2="56.5331" gradientUnits="userSpaceOnUse">
<stop stop-color="#111F51"/>
<stop offset="1" stop-color="#83459F" stop-opacity="0"/>
</linearGradient>
<linearGradient id="paint8_linear_9_10103" x1="17.9224" y1="38.9329" x2="17.9224" y2="59.1996" gradientUnits="userSpaceOnUse">
<stop stop-color="#111F51"/>
<stop offset="1" stop-color="#83459F" stop-opacity="0"/>
</linearGradient>
<linearGradient id="paint9_linear_9_10103" x1="25.9475" y1="38.9332" x2="25.9475" y2="59.1999" gradientUnits="userSpaceOnUse">
<stop stop-color="#111F51"/>
<stop offset="1" stop-color="#83459F" stop-opacity="0"/>
</linearGradient>
<linearGradient id="paint10_linear_9_10103" x1="30.7624" y1="37.3331" x2="30.7624" y2="57.5998" gradientUnits="userSpaceOnUse">
<stop stop-color="#111F51"/>
<stop offset="1" stop-color="#83459F" stop-opacity="0"/>
</linearGradient>
<linearGradient id="paint11_linear_9_10103" x1="34.5075" y1="37.8664" x2="34.5075" y2="58.133" gradientUnits="userSpaceOnUse">
<stop stop-color="#111F51"/>
<stop offset="1" stop-color="#83459F" stop-opacity="0"/>
</linearGradient>
<linearGradient id="paint12_linear_9_10103" x1="38.2524" y1="38.9332" x2="38.2524" y2="59.1999" gradientUnits="userSpaceOnUse">
<stop stop-color="#111F51"/>
<stop offset="1" stop-color="#83459F" stop-opacity="0"/>
</linearGradient>
<linearGradient id="paint13_linear_9_10103" x1="41.4626" y1="35.7331" x2="41.4626" y2="55.9997" gradientUnits="userSpaceOnUse">
<stop stop-color="#111F51"/>
<stop offset="1" stop-color="#83459F" stop-opacity="0"/>
</linearGradient>
<linearGradient id="paint14_linear_9_10103" x1="46.8125" y1="37.8664" x2="46.8125" y2="58.133" gradientUnits="userSpaceOnUse">
<stop stop-color="#111F51"/>
<stop offset="1" stop-color="#83459F" stop-opacity="0"/>
</linearGradient>
<linearGradient id="paint15_linear_9_10103" x1="51.6274" y1="39.9997" x2="51.6274" y2="60.2663" gradientUnits="userSpaceOnUse">
<stop stop-color="#111F51"/>
<stop offset="1" stop-color="#83459F" stop-opacity="0"/>
</linearGradient>
<linearGradient id="paint16_linear_9_10103" x1="56.4426" y1="37.3331" x2="56.4426" y2="57.5998" gradientUnits="userSpaceOnUse">
<stop stop-color="#111F51"/>
<stop offset="1" stop-color="#83459F" stop-opacity="0"/>
</linearGradient>
<linearGradient id="paint17_linear_9_10103" x1="59.6526" y1="39.9997" x2="59.6526" y2="60.2663" gradientUnits="userSpaceOnUse">
<stop stop-color="#111F51"/>
<stop offset="1" stop-color="#83459F" stop-opacity="0"/>
</linearGradient>
<linearGradient id="paint18_linear_9_10103" x1="62.3276" y1="41.0665" x2="62.3276" y2="61.3332" gradientUnits="userSpaceOnUse">
<stop stop-color="#111F51"/>
<stop offset="1" stop-color="#83459F" stop-opacity="0"/>
</linearGradient>
<linearGradient id="paint19_linear_9_10103" x1="66.0725" y1="37.8664" x2="66.0725" y2="58.133" gradientUnits="userSpaceOnUse">
<stop stop-color="#111F51"/>
<stop offset="1" stop-color="#83459F" stop-opacity="0"/>
</linearGradient>
<linearGradient id="paint20_linear_9_10103" x1="70.3525" y1="39.9997" x2="70.3525" y2="60.2663" gradientUnits="userSpaceOnUse">
<stop stop-color="#111F51"/>
<stop offset="1" stop-color="#83459F" stop-opacity="0"/>
</linearGradient>
<linearGradient id="paint21_linear_9_10103" x1="74.6325" y1="36.7999" x2="74.6325" y2="57.0666" gradientUnits="userSpaceOnUse">
<stop stop-color="#111F51"/>
<stop offset="1" stop-color="#83459F" stop-opacity="0"/>
</linearGradient>
<linearGradient id="paint22_linear_9_10103" x1="78.9126" y1="38.9332" x2="78.9126" y2="59.1999" gradientUnits="userSpaceOnUse">
<stop stop-color="#111F51"/>
<stop offset="1" stop-color="#83459F" stop-opacity="0"/>
</linearGradient>
<linearGradient id="paint23_linear_9_10103" x1="83.1926" y1="36.2667" x2="83.1926" y2="56.5334" gradientUnits="userSpaceOnUse">
<stop stop-color="#111F51"/>
<stop offset="1" stop-color="#83459F" stop-opacity="0"/>
</linearGradient>
<linearGradient id="paint24_linear_9_10103" x1="87.4726" y1="37.8664" x2="87.4726" y2="58.133" gradientUnits="userSpaceOnUse">
<stop stop-color="#111F51"/>
<stop offset="1" stop-color="#83459F" stop-opacity="0"/>
</linearGradient>
<linearGradient id="paint25_linear_9_10103" x1="91.7524" y1="34.133" x2="91.7524" y2="54.3996" gradientUnits="userSpaceOnUse">
<stop stop-color="#111F51"/>
<stop offset="1" stop-color="#83459F" stop-opacity="0"/>
</linearGradient>
<linearGradient id="paint26_linear_9_10103" x1="96.0324" y1="35.7331" x2="96.0324" y2="55.9997" gradientUnits="userSpaceOnUse">
<stop stop-color="#111F51"/>
<stop offset="1" stop-color="#83459F" stop-opacity="0"/>
</linearGradient>
<linearGradient id="paint27_linear_9_10103" x1="15.2475" y1="37.8664" x2="15.2475" y2="58.133" gradientUnits="userSpaceOnUse">
<stop stop-color="#111F51"/>
<stop offset="1" stop-color="#83459F" stop-opacity="0"/>
</linearGradient>
<linearGradient id="paint28_linear_9_10103" x1="11.5024" y1="34.133" x2="11.5024" y2="54.3996" gradientUnits="userSpaceOnUse">
<stop stop-color="#111F51"/>
<stop offset="1" stop-color="#83459F" stop-opacity="0"/>
</linearGradient>
</defs>
</svg>
