<svg width="32" height="32" viewBox="0 0 32 32" fill="none" xmlns="http://www.w3.org/2000/svg">
<g id="icon/social/x">
<path id="Vector" d="M6 2C3.79375 2 2 3.79375 2 6V26C2 28.2062 3.79375 30 6 30H26C28.2062 30 30 28.2062 30 26V6C30 3.79375 28.2062 2 26 2H6ZM24.5688 7.25L18.0812 14.6625L25.7125 24.75H19.7375L15.0625 18.6313L9.70625 24.75H6.7375L13.675 16.8188L6.35625 7.25H12.4812L16.7125 12.8438L21.6 7.25H24.5688ZM22.2062 22.975L11.5875 8.93125H9.81875L20.5562 22.975H22.2H22.2062Z" fill="#FEFEFE"/>
</g>
</svg>
